<svg width="16" height="16" viewBox="0 0 16 16" fill="none" xmlns="http://www.w3.org/2000/svg">
<rect width="16" height="16" rx="8" fill="white"/>
<path d="M1 8C1 4.13401 4.13401 1 8 1C11.866 1 15 4.13401 15 8C15 11.866 11.866 15 8 15C4.13401 15 1 11.866 1 8Z" fill="white"/>
<path d="M7.02246 12.9053C7.337 12.9675 7.6637 13 8 13V15C7.53237 15 7.07574 14.9527 6.63379 14.8652L7.02246 12.9053ZM9.36523 14.8652C8.92357 14.9526 8.46729 15 8 15V13C8.3363 13 8.663 12.9675 8.97754 12.9053L9.36523 14.8652ZM3.84082 10.7764C4.20644 11.3225 4.67751 11.7936 5.22363 12.1592L4.11035 13.8203C3.34702 13.3092 2.68971 12.6521 2.17871 11.8887L3.84082 10.7764ZM12.1592 10.7764L13.8203 11.8887C13.3092 12.6521 12.6521 13.3092 11.8887 13.8203L10.7764 12.1592C11.3225 11.7936 11.7936 11.3225 12.1592 10.7764ZM1 8C1 7.53244 1.04636 7.07569 1.13379 6.63379L3.09473 7.02246C3.03254 7.337 3 7.6637 3 8C3 8.3363 3.03254 8.663 3.09473 8.97754L2.11328 9.1709L2.11426 9.17188L1.13379 9.36523C1.04648 8.92363 1 8.46723 1 8ZM15 8C15 8.46729 14.9526 8.92357 14.8652 9.36523L12.9053 8.97754C12.9675 8.663 13 8.3363 13 8C13 7.6637 12.9675 7.337 12.9053 7.02246L14.8652 6.63379C14.9527 7.07574 15 7.53237 15 8ZM5.22363 3.84082C4.67751 4.20644 4.20644 4.67751 3.84082 5.22363L2.17871 4.11035C2.68974 3.34705 3.34705 2.68974 4.11035 2.17871L5.22363 3.84082ZM11.8887 2.17871C12.6521 2.68971 13.3092 3.34702 13.8203 4.11035L12.1592 5.22363C11.7936 4.67751 11.3225 4.20644 10.7764 3.84082L11.8887 2.17871ZM8 1C8.46723 1 8.92363 1.04648 9.36523 1.13379L9.19336 2.00781L8.97754 3.09473C8.663 3.03254 8.3363 3 8 3C7.6637 3 7.337 3.03254 7.02246 3.09473L6.63379 1.13379C7.07569 1.04636 7.53244 1 8 1Z" fill="#808088"/>
</svg>
