<svg width="30" height="30" viewBox="0 0 30 30" fill="none" xmlns="http://www.w3.org/2000/svg">
<path d="M15 22.9952C12.8783 22.9952 10.8434 22.1526 9.34315 20.6528C7.84285 19.1529 7 17.1187 7 14.9976C7 12.8765 7.84285 10.8423 9.34315 9.34244C10.8434 7.8426 12.8783 7 15 7C19.4178 7 23 10.183 23 14.109C23 15.0509 22.5787 15.9555 21.8284 16.622C21.0782 17.2885 20.0604 17.6635 19 17.6635H16.7778C16.3812 17.6571 15.9939 17.7834 15.6774 18.0225C15.361 18.2615 15.1336 18.5994 15.0314 18.9825C14.9292 19.3657 14.9581 19.7719 15.1135 20.1367C15.2688 20.5015 15.5418 20.8039 15.8889 20.9958C16.0664 21.1595 16.1881 21.3747 16.2369 21.6111C16.2858 21.8476 16.2593 22.0934 16.1612 22.314C16.0631 22.5346 15.8984 22.7189 15.6901 22.8411C15.4818 22.9633 15.2405 23.0172 15 22.9952Z" stroke="white" stroke-width="1.5" stroke-linecap="round" stroke-linejoin="round"/>
<path d="M11 13.6647C11 13.9003 11.0937 14.1264 11.2603 14.293C11.427 14.4597 11.6531 14.5533 11.8889 14.5533C12.1246 14.5533 12.3507 14.4597 12.5174 14.293C12.6841 14.1264 12.7778 13.9003 12.7778 13.6647C12.7778 13.429 12.6841 13.203 12.5174 13.0363C12.3507 12.8697 12.1246 12.776 11.8889 12.776C11.6531 12.776 11.427 12.8697 11.2603 13.0363C11.0937 13.203 11 13.429 11 13.6647Z" stroke="white" stroke-width="1.5" stroke-linecap="round" stroke-linejoin="round"/>
<path d="M14.5556 10.9988C14.5556 11.2345 14.6492 11.4605 14.8159 11.6271C14.9826 11.7938 15.2087 11.8874 15.4444 11.8874C15.6802 11.8874 15.9063 11.7938 16.073 11.6271C16.2397 11.4605 16.3333 11.2345 16.3333 10.9988C16.3333 10.7631 16.2397 10.5371 16.073 10.3704C15.9063 10.2038 15.6802 10.1102 15.4444 10.1102C15.2087 10.1102 14.9826 10.2038 14.8159 10.3704C14.6492 10.5371 14.5556 10.7631 14.5556 10.9988Z" stroke="white" stroke-width="1.5" stroke-linecap="round" stroke-linejoin="round"/>
<path d="M18.1111 13.6647C18.1111 13.9003 18.2048 14.1264 18.3715 14.293C18.5382 14.4597 18.7643 14.5533 19 14.5533C19.2357 14.5533 19.4618 14.4597 19.6285 14.293C19.7952 14.1264 19.8889 13.9003 19.8889 13.6647C19.8889 13.429 19.7952 13.203 19.6285 13.0363C19.4618 12.8697 19.2357 12.776 19 12.776C18.7643 12.776 18.5382 12.8697 18.3715 13.0363C18.2048 13.203 18.1111 13.429 18.1111 13.6647Z" stroke="white" stroke-width="1.5" stroke-linecap="round" stroke-linejoin="round"/>
</svg>
