<svg width="30" height="30" viewBox="0 0 30 30" fill="none" xmlns="http://www.w3.org/2000/svg">
<path d="M21 14C20.4696 14 19.9609 14.2107 19.5858 14.5858C19.2107 14.9609 19 15.4696 19 16C19 16.5304 19.2107 17.0391 19.5858 17.4142C19.9609 17.7893 20.4696 18 21 18M21 14C21.5304 14 22.0391 14.2107 22.4142 14.5858C22.7893 14.9609 23 15.4696 23 16C23 16.5304 22.7893 17.0391 22.4142 17.4142C22.0391 17.7893 21.5304 18 21 18M21 14L21 7M21 18L21 23M15 9C14.4696 9 13.9609 9.21071 13.5858 9.58579C13.2107 9.96086 13 10.4696 13 11C13 11.5304 13.2107 12.0391 13.5858 12.4142C13.9609 12.7893 14.4696 13 15 13M15 9C15.5304 9 16.0391 9.21071 16.4142 9.58579C16.7893 9.96086 17 10.4696 17 11C17 11.5304 16.7893 12.0391 16.4142 12.4142C16.0391 12.7893 15.5304 13 15 13M15 9L15 7M15 13L15 23M9 17C8.46957 17 7.96086 17.2107 7.58579 17.5858C7.21071 17.9609 7 18.4696 7 19C7 19.5304 7.21071 20.0391 7.58579 20.4142C7.96086 20.7893 8.46957 21 9 21M9 17C9.53043 17 10.0391 17.2107 10.4142 17.5858C10.7893 17.9609 11 18.4696 11 19C11 19.5304 10.7893 20.0391 10.4142 20.4142C10.0391 20.7893 9.53043 21 9 21M9 17L9 7M9 21L9 23" stroke="#666" stroke-width="1.5" stroke-linecap="round" stroke-linejoin="round"/>
</svg>
