<svg width="32" height="32" viewBox="0 0 32 32" fill="none" xmlns="http://www.w3.org/2000/svg">
<path d="M12.56 7.68994C11.4681 8.14193 10.4759 8.80454 9.64001 9.63994M7.69 12.5601C7.23656 13.6504 7.0021 14.8192 7 16.0001M7.69 19.4399C8.14199 20.5319 8.8046 21.5241 9.64 22.3599M12.56 24.3101C13.6503 24.7635 14.8192 24.998 16 25.0001M19.44 24.3101C20.5319 23.8581 21.5241 23.1955 22.36 22.3601M24.31 19.44C24.7634 18.3497 24.9979 17.1808 25 16M24.31 12.5599C23.858 11.468 23.1954 10.4758 22.36 9.63989M19.44 7.69C18.3497 7.23656 17.1808 7.0021 16 7M13 16H19M16 13V19" stroke="white" stroke-width="2" stroke-linecap="round" stroke-linejoin="round"/>
</svg>
