<svg width="30" height="30" viewBox="0 0 30 30" fill="none" xmlns="http://www.w3.org/2000/svg">
<path d="M17 6V10C17 10.2652 17.1054 10.5196 17.2929 10.7071C17.4804 10.8946 17.7348 11 18 11H22M17 6H10C9.46957 6 8.96086 6.21071 8.58579 6.58579C8.21071 6.96086 8 7.46957 8 8V15M17 6L22 11M22 11V15M11 19.5C11 19.1022 10.842 18.7206 10.5607 18.4393C10.2794 18.158 9.89782 18 9.5 18C9.10218 18 8.72064 18.158 8.43934 18.4393C8.15804 18.7206 8 19.1022 8 19.5V22.5C8 22.8978 8.15804 23.2794 8.43934 23.5607C8.72064 23.842 9.10218 24 9.5 24C9.89782 24 10.2794 23.842 10.5607 23.5607C10.842 23.2794 11 22.8978 11 22.5M14 23.25C14 23.664 14.336 24 14.75 24H16C16.2652 24 16.5196 23.8946 16.7071 23.7071C16.8946 23.5196 17 23.2652 17 23V22C17 21.7348 16.8946 21.4804 16.7071 21.2929C16.5196 21.1054 16.2652 21 16 21H15C14.7348 21 14.4804 20.8946 14.2929 20.7071C14.1054 20.5196 14 20.2652 14 20V19C14 18.7348 14.1054 18.4804 14.2929 18.2929C14.4804 18.1054 14.7348 18 15 18H16.25C16.4489 18 16.6397 18.079 16.7803 18.2197C16.921 18.3603 17 18.5511 17 18.75M20 23.25C20 23.664 20.336 24 20.75 24H22C22.2652 24 22.5196 23.8946 22.7071 23.7071C22.8946 23.5196 23 23.2652 23 23V22C23 21.7348 22.8946 21.4804 22.7071 21.2929C22.5196 21.1054 22.2652 21 22 21H21C20.7348 21 20.4804 20.8946 20.2929 20.7071C20.1054 20.5196 20 20.2652 20 20V19C20 18.7348 20.1054 18.4804 20.2929 18.2929C20.4804 18.1054 20.7348 18 21 18H22.25C22.4489 18 22.6397 18.079 22.7803 18.2197C22.921 18.3603 23 18.5511 23 18.75" stroke="white" stroke-width="1.5" stroke-linecap="round" stroke-linejoin="round"/>
</svg>
