<svg width="30" height="30" viewBox="0 0 30 30" fill="none" xmlns="http://www.w3.org/2000/svg">
<path d="M19.4444 23C18.5015 23 17.5971 22.6254 16.9303 21.9586C16.2635 21.2918 15.8889 20.3874 15.8889 19.4444V8.77778C15.8889 8.30628 16.0762 7.8541 16.4096 7.5207C16.743 7.1873 17.1952 7 17.6667 7H21.2222C21.6937 7 22.1459 7.1873 22.4793 7.5207C22.8127 7.8541 23 8.30628 23 8.77778V19.4444C23 20.3874 22.6254 21.2918 21.9586 21.9586C21.2918 22.6254 20.3874 23 19.4444 23ZM19.4444 23H8.77778C8.30628 23 7.8541 22.8127 7.5207 22.4793C7.1873 22.1459 7 21.6937 7 21.2222V17.6667C7 17.1952 7.1873 16.743 7.5207 16.4096C7.8541 16.0762 8.30628 15.8889 8.77778 15.8889H10.8222M15.8889 10.8667L14.1111 9.0889C13.7777 8.75561 13.3256 8.56839 12.8542 8.56839C12.3828 8.56839 11.9307 8.75561 11.5973 9.0889L9.08356 11.6027C8.75028 11.9361 8.56305 12.3882 8.56305 12.8596C8.56305 13.331 8.75028 13.7831 9.08356 14.1165L17.0836 22.1165M19.4444 19.4444V19.4533" stroke="white" stroke-width="1.5" stroke-linecap="round" stroke-linejoin="round"/>
</svg>
