<svg width="24" height="24" viewBox="0 0 24 24" fill="none" xmlns="http://www.w3.org/2000/svg">
<path d="M4 12H4.88889M12 4V4.88889M19.1111 12H20M12 19.1111V20M6.31111 6.31111L6.93333 6.93333M17.6889 6.31111L17.0667 6.93333M17.0667 17.0667L17.6889 17.6889M6.93333 17.0667L6.31111 17.6889M8.44444 12C8.44444 12.943 8.81905 13.8474 9.48584 14.5142C10.1526 15.181 11.057 15.5556 12 15.5556C12.943 15.5556 13.8474 15.181 14.5142 14.5142C15.181 13.8474 15.5556 12.943 15.5556 12C15.5556 11.057 15.181 10.1526 14.5142 9.48584C13.8474 8.81905 12.943 8.44444 12 8.44444C11.057 8.44444 10.1526 8.81905 9.48584 9.48584C8.81905 10.1526 8.44444 11.057 8.44444 12Z" stroke="white" stroke-width="1.5" stroke-linecap="round" stroke-linejoin="round"/>
</svg>
