<svg width="50" height="50" viewBox="0 0 50 50" fill="none" xmlns="http://www.w3.org/2000/svg">
<path d="M14 25C14 26.4445 14.2845 27.8749 14.8373 29.2095C15.3901 30.5441 16.2004 31.7567 17.2218 32.7782C18.2433 33.7996 19.4559 34.6099 20.7905 35.1627C22.1251 35.7155 23.5555 36 25 36C26.4445 36 27.8749 35.7155 29.2095 35.1627C30.5441 34.6099 31.7567 33.7996 32.7782 32.7782C33.7996 31.7567 34.6099 30.5441 35.1627 29.2095C35.7155 27.8749 36 26.4445 36 25C36 23.5555 35.7155 22.1251 35.1627 20.7905C34.6099 19.4559 33.7996 18.2433 32.7782 17.2218C31.7567 16.2004 30.5441 15.3901 29.2095 14.8373C27.8749 14.2845 26.4445 14 25 14C23.5555 14 22.1251 14.2845 20.7905 14.8373C19.4559 15.3901 18.2433 16.2004 17.2218 17.2218C16.2004 18.2433 15.3901 19.4559 14.8373 20.7905C14.2845 22.1251 14 23.5555 14 25Z" stroke="#EEEEEE" stroke-width="2" stroke-linecap="round" stroke-linejoin="round"/>
</svg>
