<svg width="32" height="32" viewBox="0 0 32 32" fill="none" xmlns="http://www.w3.org/2000/svg">
<path d="M17.6091 26.1209C17.8231 27.0709 19.1769 27.0709 19.3909 26.1209C20.1465 22.7665 22.7662 20.1466 26.1207 19.391C27.0708 19.177 27.0708 17.8232 26.1207 17.6092C22.7662 16.8535 20.1465 14.2339 19.3909 10.8793C19.1769 9.92924 17.8231 9.92924 17.6091 10.8793C16.8534 14.2339 14.2337 16.8535 10.8791 17.6092C9.92909 17.8232 9.92909 19.177 10.8791 19.391C14.2337 20.1466 16.8534 22.7662 17.6091 26.1209Z" fill="#555555"/>
<path d="M8.88795 13.1438C8.99496 13.6188 9.67184 13.6188 9.77885 13.1438C10.1567 11.4666 11.4665 10.1567 13.1438 9.77885C13.6188 9.67185 13.6188 8.99498 13.1438 8.88798C11.4665 8.51015 10.1567 7.20035 9.77885 5.52302C9.67184 5.04799 8.99496 5.04799 8.88795 5.52302C8.51012 7.20035 7.20028 8.51015 5.52298 8.88798C5.04796 8.99498 5.04796 9.67185 5.52298 9.77885C7.20028 10.1567 8.51012 11.4665 8.88795 13.1438Z" fill="#555555"/>
</svg>
