<svg width="24" height="24" viewBox="0 0 24 24" fill="none" xmlns="http://www.w3.org/2000/svg">
<path d="M12.7176 6.00533C12.8015 6.00533 12.8847 6.00533 12.9673 6.00533C12.151 6.80114 11.6263 7.8719 11.4844 9.03148C11.3425 10.1911 11.5924 11.3662 12.1906 12.3525C12.7889 13.3388 13.6977 14.074 14.759 14.4303C15.8203 14.7866 16.9671 14.7414 18 14.3027C17.6027 15.3057 16.9533 16.1767 16.1211 16.8228C15.2889 17.469 14.3052 17.866 13.2748 17.9716C12.2444 18.0772 11.206 17.8873 10.2704 17.4223C9.33483 16.9572 8.53709 16.2345 7.96232 15.3311C7.38755 14.4277 7.0573 13.3775 7.00681 12.2926C6.95631 11.2078 7.18746 10.1289 7.6756 9.17101C8.16374 8.21315 8.89056 7.41228 9.77852 6.85382C10.6665 6.29536 11.6823 6.00026 12.7176 6V6.00533Z" stroke="white" stroke-width="1.5" stroke-linecap="round" stroke-linejoin="round"/>
</svg>
