<svg width="58" height="30" viewBox="0 0 58 30" fill="none" xmlns="http://www.w3.org/2000/svg">
<path d="M6.35421 14.7914C7.22286 14.7914 8.04394 14.9665 8.81739 15.3164C9.59079 15.6542 10.2691 16.1306 10.8522 16.7459L9.97745 17.4698C9.52531 16.9873 8.97808 16.6131 8.3356 16.3477C7.70493 16.0822 7.04437 15.9498 6.35421 15.9498C5.3785 15.9499 4.50387 16.1849 3.73043 16.6554C2.96888 17.126 2.37389 17.7837 1.94552 18.6282C1.51714 19.4608 1.30312 20.4079 1.30312 21.4697C1.30313 22.5314 1.51718 23.4845 1.94552 24.3291C2.37389 25.1616 2.96888 25.8134 3.73043 26.284C4.50387 26.7545 5.3785 26.9895 6.35421 26.9895C7.04436 26.9895 7.69891 26.8571 8.31766 26.5917C8.93642 26.3263 9.47791 25.9522 9.94198 25.4696L10.8522 26.1935C10.2691 26.8088 9.59082 27.2914 8.81739 27.6413C8.04395 27.9791 7.22285 28.1479 6.35421 28.1479C5.12861 28.1479 4.03394 27.8643 3.07011 27.2973C2.10633 26.7302 1.35076 25.94 0.803397 24.9266C0.267928 23.9131 1.05548e-07 22.7607 0 21.4697C0 20.1787 0.267928 19.0263 0.803397 18.0128C1.35076 16.9994 2.10633 16.2091 3.07011 15.6421C4.03394 15.075 5.12861 14.7914 6.35421 14.7914Z" fill="#CCCCDD"/>
<path fill-rule="evenodd" clip-rule="evenodd" d="M23.4375 2.26969C24.2383 2.2697 24.9452 2.43096 25.5583 2.75352C26.1839 3.0761 26.6721 3.52433 27.0224 4.09781C27.3727 4.67125 27.5478 5.32235 27.5478 6.05107C27.5478 6.7798 27.3727 7.4309 27.0224 8.00433C26.6721 8.57781 26.1839 9.02604 25.5583 9.34863C24.9452 9.67118 24.2383 9.83244 23.4375 9.83246H20.1338V15.0189C20.6517 15.1605 21.138 15.368 21.5927 15.6421C22.545 16.2092 23.2859 16.9993 23.8149 18.0128C24.3558 19.0263 24.6261 20.1787 24.6261 21.4697C24.6261 22.7607 24.3558 23.9131 23.8149 24.9266C23.2859 25.9401 22.545 26.7302 21.5927 27.2973C20.6521 27.8643 19.5762 28.1479 18.3652 28.1479C17.1542 28.1479 16.0726 27.8643 15.1202 27.2973C14.1797 26.7302 13.4388 25.9401 12.898 24.9266C12.3689 23.9131 12.1043 22.7607 12.1043 21.4697C12.1043 20.1787 12.3689 19.0263 12.898 18.0128C13.4388 16.9993 14.1797 16.2092 15.1202 15.6421C16.0726 15.075 17.1542 14.7914 18.3652 14.7914C18.5062 14.7914 18.6453 14.7956 18.7826 14.8032V2.26969H23.4375ZM18.3652 15.9498C17.4011 15.9498 16.5428 16.1849 15.7904 16.6554C15.0379 17.126 14.4499 17.7837 14.0266 18.6282C13.6034 19.4608 13.392 20.4079 13.392 21.4697C13.392 22.5314 13.6034 23.4845 14.0266 24.3291C14.4499 25.1616 15.0379 25.8134 15.7904 26.284C16.5428 26.7545 17.4011 26.9895 18.3652 26.9895C19.3293 26.9895 20.1876 26.7545 20.9401 26.284C21.6926 25.8134 22.2805 25.1616 22.7038 24.3291C23.127 23.4845 23.3385 22.5314 23.3385 21.4697C23.3385 20.4079 23.1271 19.4608 22.7038 18.6282C22.2805 17.7837 21.6926 17.126 20.9401 16.6554C20.1876 16.1849 19.3293 15.9498 18.3652 15.9498ZM20.1338 8.68545H23.4C24.2383 8.68541 24.9203 8.44034 25.4458 7.95053C25.9712 7.4607 26.2341 6.82758 26.2341 6.05107C26.2341 5.27457 25.965 4.64144 25.427 4.15162C24.9015 3.6618 24.2195 3.41673 23.3812 3.4167H20.1151L20.1338 8.68545Z" fill="#CCCCDD"/>
<path d="M27.5959 27.0009H33.8087V28.1479H26.2957V15.2088H27.5959V27.0009Z" fill="#CCCCDD"/>
<path fill-rule="evenodd" clip-rule="evenodd" d="M47.1444 12.8789V2.26969H48.4174V15.2088H47.1444L40.0904 4.56371V14.7939C40.1527 14.7924 40.2153 14.7914 40.2783 14.7914C41.5297 14.7914 42.6414 15.075 43.6133 15.6421C44.5973 16.2091 45.3627 16.9994 45.9094 18.0128C46.4682 19.0263 46.7478 20.1787 46.7478 21.4697C46.7478 22.7607 46.4682 23.9131 45.9094 24.9266C45.3627 25.94 44.5973 26.7302 43.6133 27.2973C42.6414 27.8643 41.5297 28.1479 40.2783 28.1479C39.0269 28.1479 37.909 27.8643 36.9249 27.2973C35.953 26.7302 35.1876 25.94 34.6288 24.9266C34.0821 23.9131 33.8087 22.7607 33.8087 21.4697C33.8087 20.1787 34.0821 19.0263 34.6288 18.0128C35.1876 16.9994 35.953 16.2092 36.9249 15.6421C37.5086 15.3057 38.1396 15.0697 38.8174 14.9329V2.26969H40.0904L47.1444 12.8789ZM40.2783 15.9498C39.282 15.9498 38.395 16.1849 37.6174 16.6554C36.8399 17.126 36.2323 17.7837 35.795 18.6282C35.3576 19.4608 35.1391 20.4079 35.1391 21.4697C35.1391 22.5314 35.3577 23.4845 35.795 24.3291C36.2323 25.1616 36.8399 25.8134 37.6174 26.284C38.395 26.7545 39.282 26.9895 40.2783 26.9895C41.2745 26.9895 42.1616 26.7545 42.9391 26.284C43.7167 25.8134 44.3242 25.1616 44.7615 24.3291C45.1989 23.4845 45.4174 22.5314 45.4174 21.4697C45.4174 20.4079 45.1989 19.4608 44.7615 18.6282C44.3242 17.7837 43.7167 17.126 42.9391 16.6554C42.1616 16.1849 41.2745 15.9498 40.2783 15.9498Z" fill="#CCCCDD"/>
<path fill-rule="evenodd" clip-rule="evenodd" d="M52.8807 15.2088C53.6855 15.2088 54.393 15.3761 55.0027 15.7106C55.6246 16.0332 56.1063 16.4874 56.4477 17.0728C56.8013 17.6462 56.978 18.3033 56.978 19.044C56.978 19.94 56.6792 20.7284 56.0817 21.4094C55.4963 22.0903 54.7343 22.5206 53.7954 22.6998L57.6 28.1479H56.0087L52.2587 22.7895H49.7344V28.1479H48.4174V15.2088H52.8807ZM49.7344 21.6425H52.9174C53.7222 21.6425 54.3805 21.3914 54.8927 20.8897C55.4048 20.3879 55.661 19.7488 55.661 18.9723C55.661 18.2077 55.4048 17.5806 54.8927 17.0907C54.3805 16.6009 53.7222 16.3559 52.9174 16.3558H49.7344V21.6425Z" fill="#CCCCDD"/>
<path fill-rule="evenodd" clip-rule="evenodd" d="M11.2696 1.85229C12.4806 1.8523 13.5564 2.1359 14.497 2.70297C15.4493 3.27004 16.1902 4.06017 16.7193 5.07363C17.2601 6.08713 17.5304 7.23955 17.5304 8.53056C17.5304 9.82157 17.2601 10.974 16.7193 11.9875C16.1902 13.0009 15.4493 13.7911 14.497 14.3581C13.5564 14.9252 12.4806 15.2088 11.2696 15.2088C10.0586 15.2088 8.97694 14.9252 8.02459 14.3581C7.08403 13.7911 6.34315 13.0009 5.80231 11.9875C5.27322 10.974 5.0087 9.82157 5.0087 8.53056C5.0087 7.23955 5.27322 6.08713 5.80231 5.07363C6.34315 4.06018 7.08403 3.27003 8.02459 2.70297C8.97694 2.13591 10.0586 1.85229 11.2696 1.85229ZM11.2696 3.01072C10.3055 3.01072 9.44716 3.24577 8.6947 3.71629C7.94222 4.18684 7.35425 4.84453 6.93098 5.68912C6.50771 6.52163 6.29633 7.4688 6.29633 8.53056C6.29633 9.59226 6.50776 10.5454 6.93098 11.3899C7.35425 12.2225 7.94222 12.8743 8.6947 13.3448C9.44716 13.8153 10.3055 14.0504 11.2696 14.0504C12.2336 14.0504 13.092 13.8153 13.8444 13.3448C14.5969 12.8743 15.1849 12.2225 15.6082 11.3899C16.0314 10.5454 16.2428 9.59226 16.2428 8.53056C16.2428 7.4688 16.0314 6.52163 15.6082 5.68912C15.1849 4.84453 14.5969 4.18684 13.8444 3.71629C13.092 3.24577 12.2336 3.01072 11.2696 3.01072Z" fill="#CCCCDD"/>
<path d="M36.7304 3.4167H30.0774V7.96846H35.8255V9.11547H30.0774V14.0618H36.7304V15.2088H28.8V2.26969H36.7304V3.4167Z" fill="#CCCCDD"/>
</svg>
