<svg width="120" height="50" viewBox="0 0 120 50" fill="none" xmlns="http://www.w3.org/2000/svg">
<path d="M32.3324 33.746C33.4032 33.746 34.4153 33.9591 35.3687 34.3849C36.322 34.796 37.1581 35.3757 37.8768 36.1245L36.7986 37.0055C36.2413 36.4182 35.5667 35.9629 34.7748 35.6399C33.9974 35.3169 33.1832 35.1558 32.3324 35.1558C31.1297 35.1558 30.0516 35.4418 29.0983 36.0144C28.1596 36.587 27.4262 37.3874 26.8981 38.4152C26.3701 39.4283 26.1063 40.5809 26.1063 41.873C26.1063 43.165 26.3701 44.3249 26.8981 45.3527C27.4262 46.3658 28.1596 47.159 29.0983 47.7316C30.0516 48.3042 31.1297 48.5903 32.3324 48.5903C33.1832 48.5903 33.99 48.4292 34.7527 48.1062C35.5154 47.7831 36.1828 47.3279 36.7549 46.7406L37.8768 47.6215C37.1581 48.3703 36.322 48.9576 35.3687 49.3834C34.4153 49.7945 33.4032 50 32.3324 50C30.8217 50 29.4724 49.6549 28.2843 48.9648C27.0963 48.2747 26.165 47.3131 25.4903 46.0799C24.8303 44.8465 24.5 43.4441 24.5 41.873C24.5 40.3019 24.8303 38.8995 25.4903 37.6662C26.165 36.4329 27.0963 35.4713 28.2843 34.7813C29.4724 34.0912 30.8217 33.746 32.3324 33.746Z" fill="#404050"/>
<path fill-rule="evenodd" clip-rule="evenodd" d="M53.39 18.5079C54.377 18.508 55.2484 18.7042 56.0041 19.0967C56.7753 19.4893 57.377 20.0348 57.8089 20.7326C58.2407 21.4305 58.4565 22.2228 58.4565 23.1096C58.4565 23.9964 58.2407 24.7888 57.8089 25.4866C57.377 26.1845 56.7753 26.73 56.0041 27.1225C55.2484 27.515 54.377 27.7113 53.39 27.7113H49.3177V34.0228C49.956 34.1952 50.5555 34.4477 51.116 34.7813C52.2898 35.4713 53.2031 36.4329 53.8552 37.6662C54.5219 38.8995 54.8551 40.3019 54.8551 41.873C54.8551 43.4441 54.5219 44.8465 53.8552 46.0799C53.2031 47.3132 52.2898 48.2747 51.116 48.9648C49.9565 49.6549 48.6304 50 47.1377 50C45.645 50 44.3117 49.6549 43.1378 48.9648C41.9784 48.2747 41.0652 47.3132 40.3985 46.0799C39.7464 44.8465 39.4203 43.4441 39.4203 41.873C39.4203 40.3019 39.7464 38.8995 40.3985 37.6662C41.0652 36.4329 41.9784 35.4713 43.1378 34.7813C44.3117 34.0912 45.645 33.746 47.1377 33.746C47.3114 33.746 47.4829 33.7511 47.6522 33.7604V18.5079H53.39ZM47.1377 35.1558C45.9493 35.1558 44.8913 35.4418 43.9638 36.0144C43.0363 36.587 42.3115 37.3874 41.7898 38.4152C41.268 39.4283 41.0075 40.5809 41.0075 41.873C41.0075 43.165 41.2681 44.3249 41.7898 45.3527C42.3115 46.3658 43.0363 47.159 43.9638 47.7316C44.8913 48.3042 45.9493 48.5903 47.1377 48.5903C48.326 48.5903 49.384 48.3042 50.3116 47.7316C51.2391 47.159 51.9639 46.3658 52.4856 45.3527C53.0073 44.3249 53.2679 43.165 53.2679 41.873C53.2679 40.5809 53.0073 39.4283 52.4856 38.4152C51.9639 37.3874 51.2391 36.587 50.3116 36.0144C49.384 35.4418 48.326 35.1558 47.1377 35.1558ZM49.3177 26.3155H53.3438C54.377 26.3154 55.2177 26.0172 55.8655 25.4211C56.5131 24.825 56.8372 24.0546 56.8372 23.1096C56.8372 22.1647 56.5054 21.3942 55.8424 20.7981C55.1946 20.202 54.3539 19.9038 53.3206 19.9038H49.2946L49.3177 26.3155Z" fill="#404050"/>
<path d="M58.5158 48.6042H66.1739V50H56.913V34.254H58.5158V48.6042Z" fill="#404050"/>
<path fill-rule="evenodd" clip-rule="evenodd" d="M82.6121 31.4187V18.5079H84.1812V34.254H82.6121L73.9169 21.2996V33.749C73.9937 33.7473 74.0709 33.746 74.1486 33.746C75.6911 33.746 77.0614 34.0912 78.2595 34.7813C79.4724 35.4713 80.4158 36.4329 81.0897 37.6662C81.7786 38.8995 82.1232 40.3019 82.1232 41.873C82.1232 43.4441 81.7786 44.8465 81.0897 46.0799C80.4158 47.3131 79.4724 48.2747 78.2595 48.9648C77.0614 49.6549 75.6911 50 74.1486 50C72.606 50 71.2281 49.6549 70.015 48.9648C68.8171 48.2747 67.8737 47.3131 67.1848 46.0799C66.5109 44.8465 66.1739 43.4441 66.1739 41.873C66.1739 40.3019 66.5109 38.8995 67.1848 37.6662C67.8737 36.4329 68.8171 35.4713 70.015 34.7813C70.7345 34.3719 71.5124 34.0847 72.3478 33.9182V18.5079H73.9169L82.6121 31.4187ZM74.1486 35.1558C72.9205 35.1558 71.8271 35.4418 70.8687 36.0144C69.9102 36.587 69.1614 37.3874 68.6223 38.4152C68.0832 39.4283 67.8139 40.5809 67.8139 41.873C67.8139 43.165 68.0832 44.3249 68.6223 45.3527C69.1614 46.3658 69.9102 47.159 70.8687 47.7316C71.8271 48.3043 72.9205 48.5903 74.1486 48.5903C75.3766 48.5903 76.47 48.3043 77.4284 47.7316C78.3869 47.159 79.1357 46.3658 79.6748 45.3527C80.2139 44.3249 80.4832 43.165 80.4832 41.873C80.4832 40.5809 80.2139 39.4283 79.6748 38.4152C79.1357 37.3874 78.3869 36.587 77.4284 36.0144C76.47 35.4418 75.3766 35.1558 74.1486 35.1558Z" fill="#404050"/>
<path fill-rule="evenodd" clip-rule="evenodd" d="M89.6828 34.254C90.6749 34.254 91.5469 34.4575 92.2985 34.8646C93.065 35.2571 93.6588 35.8099 94.0796 36.5223C94.5154 37.2202 94.7333 38.0198 94.7333 38.9211C94.7333 40.0115 94.3649 40.9709 93.6284 41.7996C92.9069 42.6283 91.9676 43.1519 90.8103 43.37L95.5 50H93.5385L88.9161 43.4792H85.8045V50H84.1812V34.254H89.6828ZM85.8045 42.0833H89.728C90.72 42.0833 91.5315 41.7778 92.1628 41.1672C92.7941 40.5565 93.1099 39.7789 93.1099 38.8338C93.1099 37.9033 92.7941 37.1402 92.1628 36.5441C91.5315 35.9481 90.72 35.6498 89.728 35.6498H85.8045V42.0833Z" fill="#404050"/>
<path fill-rule="evenodd" clip-rule="evenodd" d="M38.3913 18C39.8841 18 41.2102 18.3451 42.3696 19.0352C43.5434 19.7253 44.4567 20.6868 45.1089 21.9201C45.7755 23.1535 46.1087 24.5559 46.1087 26.127C46.1087 27.6981 45.7755 29.1005 45.1089 30.3338C44.4567 31.5671 43.5434 32.5287 42.3696 33.2188C41.2102 33.9088 39.8841 34.254 38.3913 34.254C36.8986 34.254 35.5653 33.9088 34.3914 33.2188C33.232 32.5287 32.3188 31.5671 31.6522 30.3338C31 29.1005 30.6739 27.6981 30.6739 26.127C30.6739 24.5559 31 23.1535 31.6522 21.9201C32.3188 20.6868 33.232 19.7253 34.3914 19.0352C35.5653 18.3451 36.8986 18 38.3913 18ZM38.3913 19.4097C37.2029 19.4097 36.1449 19.6958 35.2174 20.2684C34.2899 20.841 33.5651 21.6413 33.0434 22.6691C32.5217 23.6823 32.2611 24.8349 32.2611 26.127C32.2611 27.419 32.5217 28.5789 33.0434 29.6066C33.5651 30.6198 34.2899 31.413 35.2174 31.9856C36.1449 32.5582 37.2029 32.8442 38.3913 32.8442C39.5797 32.8442 40.6377 32.5582 41.5652 31.9856C42.4927 31.413 43.2175 30.6198 43.7392 29.6066C44.2609 28.5789 44.5215 27.419 44.5215 26.127C44.5215 24.8349 44.2609 23.6823 43.7392 22.6691C43.2175 21.6413 42.4927 20.841 41.5652 20.2684C40.6377 19.6958 39.5797 19.4097 38.3913 19.4097Z" fill="#404050"/>
<path d="M69.7754 19.9038H61.5746V25.443H68.66V26.8388H61.5746V32.8581H69.7754V34.254H60V18.5079H69.7754V19.9038Z" fill="#404050"/>
</svg>
